solid Mi_mesa
facet normal -0.0 1.0 -0.0
  outer loop
    vertex 59.175363105069394 146.58451025539003 120.0
    vertex 69.1753631050694 146.58451025539003 104.00000000000001
    vertex 59.175363105069394 146.58451025539003 104.00000000000001
  endloop
endfacet
facet normal -0.0 1.0 -0.0
  outer loop
    vertex 69.1753631050694 146.58451025539003 104.00000000000001
    vertex 59.175363105069394 146.58451025539003 120.0
    vertex 79.1753631050694 146.58451025539003 104.00000000000001
  endloop
endfacet
facet normal -0.0 1.0 -0.0
  outer loop
    vertex 79.1753631050694 146.58451025539003 104.00000000000001
    vertex 59.175363105069394 146.58451025539003 120.0
    vertex 159.17536310506938 146.58451025539003 104.00000000000001
  endloop
endfacet
facet normal -0.0 1.0 -0.0
  outer loop
    vertex 159.17536310506938 146.58451025539003 104.00000000000001
    vertex 59.175363105069394 146.58451025539003 120.0
    vertex 169.17536310506938 146.58451025539003 104.00000000000001
  endloop
endfacet
facet normal -0.0 1.0 -0.0
  outer loop
    vertex 169.17536310506938 146.58451025539003 104.00000000000001
    vertex 59.175363105069394 146.58451025539003 120.0
    vertex 179.1753631050694 146.58451025539003 104.00000000000001
  endloop
endfacet
facet normal -0.0 1.0 -0.0
  outer loop
    vertex 179.1753631050694 146.58451025539003 104.00000000000001
    vertex 59.175363105069394 146.58451025539003 120.0
    vertex 179.1753631050694 146.58451025539003 120.0
  endloop
endfacet
facet normal -0.0 1.0 -0.0
  outer loop
    vertex 159.17536310506938 146.58451025539003 104.00000000000001
    vertex 169.17536310506938 146.58451025539003 0.0
    vertex 159.17536310506938 146.58451025539003 0.0
  endloop
endfacet
facet normal -0.0 1.0 -0.0
  outer loop
    vertex 169.17536310506938 146.58451025539003 0.0
    vertex 159.17536310506938 146.58451025539003 104.00000000000001
    vertex 169.17536310506938 146.58451025539003 104.00000000000001
  endloop
endfacet
facet normal -0.0 1.0 -0.0
  outer loop
    vertex 69.1753631050694 146.58451025539003 104.00000000000001
    vertex 79.1753631050694 146.58451025539003 0.0
    vertex 69.1753631050694 146.58451025539003 0.0
  endloop
endfacet
facet normal -0.0 1.0 -0.0
  outer loop
    vertex 79.1753631050694 146.58451025539003 0.0
    vertex 69.1753631050694 146.58451025539003 104.00000000000001
    vertex 79.1753631050694 146.58451025539003 104.00000000000001
  endloop
endfacet
facet normal 0.0 0.0 -1.0
  outer loop
    vertex 79.1753631050694 72.58451025539001 0.0
    vertex 69.1753631050694 56.584510255390015 0.0
    vertex 69.1753631050694 72.58451025539001 0.0
  endloop
endfacet
facet normal 0.0 0.0 -1.0
  outer loop
    vertex 69.1753631050694 56.584510255390015 0.0
    vertex 79.1753631050694 72.58451025539001 0.0
    vertex 79.1753631050694 56.584510255390015 0.0
  endloop
endfacet
facet normal -0.0 -0.0 1.0
  outer loop
    vertex 179.1753631050694 56.584510255390015 120.0
    vertex 59.175363105069394 146.58451025539003 120.0
    vertex 59.175363105069394 56.584510255390015 120.0
  endloop
endfacet
facet normal -0.0 -0.0 1.0
  outer loop
    vertex 59.175363105069394 146.58451025539003 120.0
    vertex 179.1753631050694 56.584510255390015 120.0
    vertex 179.1753631050694 146.58451025539003 120.0
  endloop
endfacet
facet normal -1.0 0.0 0.0
  outer loop
    vertex 59.175363105069394 146.58451025539003 120.0
    vertex 59.175363105069394 56.584510255390015 104.00000000000001
    vertex 59.175363105069394 56.584510255390015 120.0
  endloop
endfacet
facet normal -1.0 0.0 0.0
  outer loop
    vertex 59.175363105069394 56.584510255390015 104.00000000000001
    vertex 59.175363105069394 146.58451025539003 120.0
    vertex 59.175363105069394 146.58451025539003 104.00000000000001
  endloop
endfacet
facet normal -1.0 0.0 0.0
  outer loop
    vertex 69.1753631050694 130.58451025539003 104.00000000000001
    vertex 69.1753631050694 72.58451025539001 100.00000000000001
    vertex 69.1753631050694 72.58451025539001 104.00000000000001
  endloop
endfacet
facet normal -1.0 0.0 0.0
  outer loop
    vertex 69.1753631050694 72.58451025539001 100.00000000000001
    vertex 69.1753631050694 130.58451025539003 104.00000000000001
    vertex 69.1753631050694 130.58451025539003 100.00000000000001
  endloop
endfacet
facet normal -1.0 0.0 0.0
  outer loop
    vertex 69.1753631050694 130.58451025539003 100.00000000000001
    vertex 69.1753631050694 130.58451025539003 104.00000000000001
    vertex 69.1753631050694 146.58451025539003 104.00000000000001
  endloop
endfacet
facet normal -1.0 0.0 0.0
  outer loop
    vertex 69.1753631050694 130.58451025539003 100.00000000000001
    vertex 69.1753631050694 146.58451025539003 104.00000000000001
    vertex 69.1753631050694 130.58451025539003 0.0
  endloop
endfacet
facet normal -1.0 0.0 0.0
  outer loop
    vertex 69.1753631050694 130.58451025539003 0.0
    vertex 69.1753631050694 146.58451025539003 104.00000000000001
    vertex 69.1753631050694 146.58451025539003 0.0
  endloop
endfacet
facet normal -1.0 0.0 0.0
  outer loop
    vertex 69.1753631050694 72.58451025539001 104.00000000000001
    vertex 69.1753631050694 56.584510255390015 0.0
    vertex 69.1753631050694 56.584510255390015 104.00000000000001
  endloop
endfacet
facet normal -1.0 0.0 0.0
  outer loop
    vertex 69.1753631050694 56.584510255390015 0.0
    vertex 69.1753631050694 72.58451025539001 104.00000000000001
    vertex 69.1753631050694 72.58451025539001 0.0
  endloop
endfacet
facet normal -1.0 0.0 0.0
  outer loop
    vertex 69.1753631050694 72.58451025539001 0.0
    vertex 69.1753631050694 72.58451025539001 104.00000000000001
    vertex 69.1753631050694 72.58451025539001 100.00000000000001
  endloop
endfacet
facet normal -1.0 0.0 0.0
  outer loop
    vertex 159.17536310506938 130.58451025539 104.00000000000001
    vertex 159.17536310506938 72.58451025539001 100.00000000000001
    vertex 159.17536310506938 72.58451025539001 104.00000000000001
  endloop
endfacet
facet normal -1.0 0.0 0.0
  outer loop
    vertex 159.17536310506938 72.58451025539001 100.00000000000001
    vertex 159.17536310506938 130.58451025539 104.00000000000001
    vertex 159.17536310506938 130.58451025539 100.00000000000001
  endloop
endfacet
facet normal -1.0 0.0 0.0
  outer loop
    vertex 159.17536310506938 130.58451025539 100.00000000000001
    vertex 159.17536310506938 130.58451025539 104.00000000000001
    vertex 159.17536310506938 146.58451025539003 104.00000000000001
  endloop
endfacet
facet normal -1.0 0.0 0.0
  outer loop
    vertex 159.17536310506938 130.58451025539 100.00000000000001
    vertex 159.17536310506938 146.58451025539003 104.00000000000001
    vertex 159.17536310506938 130.58451025539 0.0
  endloop
endfacet
facet normal -1.0 0.0 0.0
  outer loop
    vertex 159.17536310506938 130.58451025539 0.0
    vertex 159.17536310506938 146.58451025539003 104.00000000000001
    vertex 159.17536310506938 146.58451025539003 0.0
  endloop
endfacet
facet normal -1.0 0.0 0.0
  outer loop
    vertex 159.17536310506938 72.58451025539001 104.00000000000001
    vertex 159.17536310506938 56.584510255390015 0.0
    vertex 159.17536310506938 56.584510255390015 104.00000000000001
  endloop
endfacet
facet normal -1.0 0.0 0.0
  outer loop
    vertex 159.17536310506938 56.584510255390015 0.0
    vertex 159.17536310506938 72.58451025539001 104.00000000000001
    vertex 159.17536310506938 72.58451025539001 0.0
  endloop
endfacet
facet normal -1.0 0.0 0.0
  outer loop
    vertex 159.17536310506938 72.58451025539001 0.0
    vertex 159.17536310506938 72.58451025539001 104.00000000000001
    vertex 159.17536310506938 72.58451025539001 100.00000000000001
  endloop
endfacet
facet normal 0.0 0.0 -1.0
  outer loop
    vertex 69.1753631050694 146.58451025539003 104.00000000000001
    vertex 59.175363105069394 56.584510255390015 104.00000000000001
    vertex 59.175363105069394 146.58451025539003 104.00000000000001
  endloop
endfacet
facet normal 0.0 0.0 -1.0
  outer loop
    vertex 59.175363105069394 56.584510255390015 104.00000000000001
    vertex 69.1753631050694 146.58451025539003 104.00000000000001
    vertex 69.1753631050694 56.584510255390015 104.00000000000001
  endloop
endfacet
facet normal 0.0 0.0 -1.0
  outer loop
    vertex 69.1753631050694 56.584510255390015 104.00000000000001
    vertex 69.1753631050694 146.58451025539003 104.00000000000001
    vertex 69.1753631050694 130.58451025539003 104.00000000000001
  endloop
endfacet
facet normal 0.0 0.0 -1.0
  outer loop
    vertex 69.1753631050694 56.584510255390015 104.00000000000001
    vertex 69.1753631050694 130.58451025539003 104.00000000000001
    vertex 69.1753631050694 72.58451025539001 104.00000000000001
  endloop
endfacet
facet normal 1.0 -0.0 -0.0
  outer loop
    vertex 179.1753631050694 146.58451025539003 104.00000000000001
    vertex 179.1753631050694 56.584510255390015 120.0
    vertex 179.1753631050694 56.584510255390015 104.00000000000001
  endloop
endfacet
facet normal 1.0 -0.0 -0.0
  outer loop
    vertex 179.1753631050694 56.584510255390015 120.0
    vertex 179.1753631050694 146.58451025539003 104.00000000000001
    vertex 179.1753631050694 146.58451025539003 120.0
  endloop
endfacet
facet normal 1.0 -0.0 -0.0
  outer loop
    vertex 169.17536310506938 146.58451025539003 0.0
    vertex 169.17536310506938 130.58451025539003 100.00000000000001
    vertex 169.17536310506938 130.58451025539003 0.0
  endloop
endfacet
facet normal 1.0 -0.0 -0.0
  outer loop
    vertex 169.17536310506938 130.58451025539003 100.00000000000001
    vertex 169.17536310506938 146.58451025539003 0.0
    vertex 169.17536310506938 130.58451025539003 104.00000000000001
  endloop
endfacet
facet normal 1.0 -0.0 -0.0
  outer loop
    vertex 169.17536310506938 130.58451025539003 104.00000000000001
    vertex 169.17536310506938 146.58451025539003 0.0
    vertex 169.17536310506938 146.58451025539003 104.00000000000001
  endloop
endfacet
facet normal 1.0 -0.0 -0.0
  outer loop
    vertex 169.17536310506938 72.58451025539001 0.0
    vertex 169.17536310506938 56.584510255390015 104.00000000000001
    vertex 169.17536310506938 56.584510255390015 0.0
  endloop
endfacet
facet normal 1.0 -0.0 -0.0
  outer loop
    vertex 169.17536310506938 56.584510255390015 104.00000000000001
    vertex 169.17536310506938 72.58451025539001 0.0
    vertex 169.17536310506938 72.58451025539001 104.00000000000001
  endloop
endfacet
facet normal 1.0 -0.0 -0.0
  outer loop
    vertex 169.17536310506938 72.58451025539001 104.00000000000001
    vertex 169.17536310506938 72.58451025539001 0.0
    vertex 169.17536310506938 72.58451025539001 100.00000000000001
  endloop
endfacet
facet normal 1.0 -0.0 -0.0
  outer loop
    vertex 169.17536310506938 72.58451025539001 104.00000000000001
    vertex 169.17536310506938 72.58451025539001 100.00000000000001
    vertex 169.17536310506938 130.58451025539003 100.00000000000001
  endloop
endfacet
facet normal 1.0 -0.0 -0.0
  outer loop
    vertex 169.17536310506938 72.58451025539001 104.00000000000001
    vertex 169.17536310506938 130.58451025539003 100.00000000000001
    vertex 169.17536310506938 130.58451025539003 104.00000000000001
  endloop
endfacet
facet normal 0.0 0.0 -1.0
  outer loop
    vertex 179.1753631050694 146.58451025539003 104.00000000000001
    vertex 169.17536310506938 130.58451025539003 104.00000000000001
    vertex 169.17536310506938 146.58451025539003 104.00000000000001
  endloop
endfacet
facet normal 0.0 0.0 -1.0
  outer loop
    vertex 169.17536310506938 130.58451025539003 104.00000000000001
    vertex 179.1753631050694 146.58451025539003 104.00000000000001
    vertex 169.17536310506938 72.58451025539001 104.00000000000001
  endloop
endfacet
facet normal 0.0 0.0 -1.0
  outer loop
    vertex 169.17536310506938 72.58451025539001 104.00000000000001
    vertex 179.1753631050694 146.58451025539003 104.00000000000001
    vertex 169.17536310506938 56.584510255390015 104.00000000000001
  endloop
endfacet
facet normal 0.0 0.0 -1.0
  outer loop
    vertex 169.17536310506938 56.584510255390015 104.00000000000001
    vertex 179.1753631050694 146.58451025539003 104.00000000000001
    vertex 179.1753631050694 56.584510255390015 104.00000000000001
  endloop
endfacet
facet normal 0.0 0.0 -1.0
  outer loop
    vertex 169.17536310506938 146.58451025539003 0.0
    vertex 159.17536310506938 130.58451025539 0.0
    vertex 159.17536310506938 146.58451025539003 0.0
  endloop
endfacet
facet normal 0.0 0.0 -1.0
  outer loop
    vertex 159.17536310506938 130.58451025539 0.0
    vertex 169.17536310506938 146.58451025539003 0.0
    vertex 169.17536310506938 130.58451025539003 0.0
  endloop
endfacet
facet normal 0.0 -1.0 0.0
  outer loop
    vertex 179.1753631050694 56.584510255390015 120.0
    vertex 169.17536310506938 56.584510255390015 104.00000000000001
    vertex 179.1753631050694 56.584510255390015 104.00000000000001
  endloop
endfacet
facet normal 0.0 -1.0 0.0
  outer loop
    vertex 169.17536310506938 56.584510255390015 104.00000000000001
    vertex 179.1753631050694 56.584510255390015 120.0
    vertex 159.17536310506938 56.584510255390015 104.00000000000001
  endloop
endfacet
facet normal 0.0 -1.0 0.0
  outer loop
    vertex 159.17536310506938 56.584510255390015 104.00000000000001
    vertex 179.1753631050694 56.584510255390015 120.0
    vertex 79.1753631050694 56.584510255390015 104.00000000000001
  endloop
endfacet
facet normal 0.0 -1.0 0.0
  outer loop
    vertex 79.1753631050694 56.584510255390015 104.00000000000001
    vertex 179.1753631050694 56.584510255390015 120.0
    vertex 69.1753631050694 56.584510255390015 104.00000000000001
  endloop
endfacet
facet normal 0.0 -1.0 0.0
  outer loop
    vertex 69.1753631050694 56.584510255390015 104.00000000000001
    vertex 179.1753631050694 56.584510255390015 120.0
    vertex 59.175363105069394 56.584510255390015 104.00000000000001
  endloop
endfacet
facet normal 0.0 -1.0 0.0
  outer loop
    vertex 59.175363105069394 56.584510255390015 104.00000000000001
    vertex 179.1753631050694 56.584510255390015 120.0
    vertex 59.175363105069394 56.584510255390015 120.0
  endloop
endfacet
facet normal 0.0 -1.0 0.0
  outer loop
    vertex 79.1753631050694 56.584510255390015 104.00000000000001
    vertex 69.1753631050694 56.584510255390015 0.0
    vertex 79.1753631050694 56.584510255390015 0.0
  endloop
endfacet
facet normal 0.0 -1.0 0.0
  outer loop
    vertex 69.1753631050694 56.584510255390015 0.0
    vertex 79.1753631050694 56.584510255390015 104.00000000000001
    vertex 69.1753631050694 56.584510255390015 104.00000000000001
  endloop
endfacet
facet normal 0.0 -1.0 0.0
  outer loop
    vertex 169.17536310506938 56.584510255390015 104.00000000000001
    vertex 159.17536310506938 56.584510255390015 0.0
    vertex 169.17536310506938 56.584510255390015 0.0
  endloop
endfacet
facet normal 0.0 -1.0 0.0
  outer loop
    vertex 159.17536310506938 56.584510255390015 0.0
    vertex 169.17536310506938 56.584510255390015 104.00000000000001
    vertex 159.17536310506938 56.584510255390015 104.00000000000001
  endloop
endfacet
facet normal -0.0 1.0 -0.0
  outer loop
    vertex 69.1753631050694 72.58451025539001 100.00000000000001
    vertex 79.1753631050694 72.58451025539001 0.0
    vertex 69.1753631050694 72.58451025539001 0.0
  endloop
endfacet
facet normal -0.0 1.0 -0.0
  outer loop
    vertex 79.1753631050694 72.58451025539001 0.0
    vertex 69.1753631050694 72.58451025539001 100.00000000000001
    vertex 79.1753631050694 72.58451025539001 100.00000000000001
  endloop
endfacet
facet normal 2.2559731860383173e-15 -1.0 6.481748386192411e-33
  outer loop
    vertex 169.17536310506938 130.58451025539003 100.00000000000001
    vertex 159.17536310506938 130.58451025539 0.0
    vertex 169.17536310506938 130.58451025539003 0.0
  endloop
endfacet
facet normal 2.2559731860383173e-15 -1.0 6.481748386192411e-33
  outer loop
    vertex 159.17536310506938 130.58451025539 0.0
    vertex 169.17536310506938 130.58451025539003 100.00000000000001
    vertex 159.17536310506938 130.58451025539 100.00000000000001
  endloop
endfacet
facet normal 0.0 0.0 -1.0
  outer loop
    vertex 159.17536310506938 146.58451025539003 104.00000000000001
    vertex 79.1753631050694 130.58451025539 104.00000000000001
    vertex 79.1753631050694 146.58451025539003 104.00000000000001
  endloop
endfacet
facet normal 0.0 0.0 -1.0
  outer loop
    vertex 79.1753631050694 130.58451025539 104.00000000000001
    vertex 159.17536310506938 146.58451025539003 104.00000000000001
    vertex 79.1753631050694 72.58451025539001 104.00000000000001
  endloop
endfacet
facet normal 0.0 0.0 -1.0
  outer loop
    vertex 79.1753631050694 72.58451025539001 104.00000000000001
    vertex 159.17536310506938 146.58451025539003 104.00000000000001
    vertex 79.1753631050694 56.584510255390015 104.00000000000001
  endloop
endfacet
facet normal 0.0 0.0 -1.0
  outer loop
    vertex 79.1753631050694 56.584510255390015 104.00000000000001
    vertex 159.17536310506938 146.58451025539003 104.00000000000001
    vertex 159.17536310506938 56.584510255390015 104.00000000000001
  endloop
endfacet
facet normal 0.0 0.0 -1.0
  outer loop
    vertex 159.17536310506938 56.584510255390015 104.00000000000001
    vertex 159.17536310506938 146.58451025539003 104.00000000000001
    vertex 159.17536310506938 130.58451025539 104.00000000000001
  endloop
endfacet
facet normal 0.0 0.0 -1.0
  outer loop
    vertex 159.17536310506938 56.584510255390015 104.00000000000001
    vertex 159.17536310506938 130.58451025539 104.00000000000001
    vertex 159.17536310506938 72.58451025539001 104.00000000000001
  endloop
endfacet
facet normal 0.0 0.0 -1.0
  outer loop
    vertex 169.17536310506938 130.58451025539003 100.00000000000001
    vertex 159.17536310506938 72.58451025539001 100.00000000000001
    vertex 159.17536310506938 130.58451025539 100.00000000000001
  endloop
endfacet
facet normal 0.0 0.0 -1.0
  outer loop
    vertex 159.17536310506938 72.58451025539001 100.00000000000001
    vertex 169.17536310506938 130.58451025539003 100.00000000000001
    vertex 169.17536310506938 72.58451025539001 100.00000000000001
  endloop
endfacet
facet normal 0.0 0.0 -1.0
  outer loop
    vertex 79.1753631050694 130.58451025539 100.00000000000001
    vertex 69.1753631050694 72.58451025539001 100.00000000000001
    vertex 69.1753631050694 130.58451025539003 100.00000000000001
  endloop
endfacet
facet normal 0.0 0.0 -1.0
  outer loop
    vertex 69.1753631050694 72.58451025539001 100.00000000000001
    vertex 79.1753631050694 130.58451025539 100.00000000000001
    vertex 79.1753631050694 72.58451025539001 100.00000000000001
  endloop
endfacet
facet normal -2.2559731860383173e-15 -1.0 0.0
  outer loop
    vertex 79.1753631050694 130.58451025539 100.00000000000001
    vertex 69.1753631050694 130.58451025539003 0.0
    vertex 79.1753631050694 130.58451025539 0.0
  endloop
endfacet
facet normal -2.2559731860383173e-15 -1.0 0.0
  outer loop
    vertex 69.1753631050694 130.58451025539003 0.0
    vertex 79.1753631050694 130.58451025539 100.00000000000001
    vertex 69.1753631050694 130.58451025539003 100.00000000000001
  endloop
endfacet
facet normal 0.0 0.0 -1.0
  outer loop
    vertex 79.1753631050694 146.58451025539003 0.0
    vertex 69.1753631050694 130.58451025539003 0.0
    vertex 69.1753631050694 146.58451025539003 0.0
  endloop
endfacet
facet normal 0.0 0.0 -1.0
  outer loop
    vertex 69.1753631050694 130.58451025539003 0.0
    vertex 79.1753631050694 146.58451025539003 0.0
    vertex 79.1753631050694 130.58451025539 0.0
  endloop
endfacet
facet normal -0.0 1.0 -0.0
  outer loop
    vertex 159.17536310506938 72.58451025539001 100.00000000000001
    vertex 169.17536310506938 72.58451025539001 0.0
    vertex 159.17536310506938 72.58451025539001 0.0
  endloop
endfacet
facet normal -0.0 1.0 -0.0
  outer loop
    vertex 169.17536310506938 72.58451025539001 0.0
    vertex 159.17536310506938 72.58451025539001 100.00000000000001
    vertex 169.17536310506938 72.58451025539001 100.00000000000001
  endloop
endfacet
facet normal 0.0 0.0 -1.0
  outer loop
    vertex 169.17536310506938 72.58451025539001 0.0
    vertex 159.17536310506938 56.584510255390015 0.0
    vertex 159.17536310506938 72.58451025539001 0.0
  endloop
endfacet
facet normal 0.0 0.0 -1.0
  outer loop
    vertex 159.17536310506938 56.584510255390015 0.0
    vertex 169.17536310506938 72.58451025539001 0.0
    vertex 169.17536310506938 56.584510255390015 0.0
  endloop
endfacet
facet normal 1.0 -0.0 -0.0
  outer loop
    vertex 79.1753631050694 146.58451025539003 0.0
    vertex 79.1753631050694 130.58451025539 100.00000000000001
    vertex 79.1753631050694 130.58451025539 0.0
  endloop
endfacet
facet normal 1.0 -0.0 -0.0
  outer loop
    vertex 79.1753631050694 130.58451025539 100.00000000000001
    vertex 79.1753631050694 146.58451025539003 0.0
    vertex 79.1753631050694 130.58451025539 104.00000000000001
  endloop
endfacet
facet normal 1.0 -0.0 -0.0
  outer loop
    vertex 79.1753631050694 130.58451025539 104.00000000000001
    vertex 79.1753631050694 146.58451025539003 0.0
    vertex 79.1753631050694 146.58451025539003 104.00000000000001
  endloop
endfacet
facet normal 1.0 -0.0 -0.0
  outer loop
    vertex 79.1753631050694 72.58451025539001 0.0
    vertex 79.1753631050694 56.584510255390015 104.00000000000001
    vertex 79.1753631050694 56.584510255390015 0.0
  endloop
endfacet
facet normal 1.0 -0.0 -0.0
  outer loop
    vertex 79.1753631050694 56.584510255390015 104.00000000000001
    vertex 79.1753631050694 72.58451025539001 0.0
    vertex 79.1753631050694 72.58451025539001 104.00000000000001
  endloop
endfacet
facet normal 1.0 -0.0 -0.0
  outer loop
    vertex 79.1753631050694 72.58451025539001 104.00000000000001
    vertex 79.1753631050694 72.58451025539001 0.0
    vertex 79.1753631050694 72.58451025539001 100.00000000000001
  endloop
endfacet
facet normal 1.0 -0.0 -0.0
  outer loop
    vertex 79.1753631050694 72.58451025539001 104.00000000000001
    vertex 79.1753631050694 72.58451025539001 100.00000000000001
    vertex 79.1753631050694 130.58451025539 100.00000000000001
  endloop
endfacet
facet normal 1.0 -0.0 -0.0
  outer loop
    vertex 79.1753631050694 72.58451025539001 104.00000000000001
    vertex 79.1753631050694 130.58451025539 100.00000000000001
    vertex 79.1753631050694 130.58451025539 104.00000000000001
  endloop
endfacet
endsolid Mi_mesa
